<?xml version="1.0" standalone="no"?>
<!DOCTYPE svg PUBLIC "-//W3C//DTD SVG 20010904//EN"
 "http://www.w3.org/TR/2001/REC-SVG-20010904/DTD/svg10.dtd">
<svg version="1.0" xmlns="http://www.w3.org/2000/svg"
 width="512.000000pt" height="512.000000pt" viewBox="0 0 512.000000 512.000000"
 preserveAspectRatio="xMidYMid meet">
<metadata>
Created by potrace 1.11, written by Peter Selinger 2001-2013
</metadata>
<g transform="translate(0.000000,512.000000) scale(0.100000,-0.100000)"
fill="#000000" stroke="none">
<path d="M0 2560 l0 -2560 2560 0 2560 0 0 2560 0 2560 -2560 0 -2560 0 0
-2560z m3600 1036 c342 -52 563 -260 595 -559 l7 -67 -100 0 -99 0 -7 60 c-16
136 -121 276 -260 344 -107 53 -197 70 -336 63 -227 -10 -369 -86 -442 -235
-31 -65 -37 -199 -13 -272 22 -66 86 -132 158 -165 29 -13 189 -58 357 -100
168 -42 339 -88 380 -101 331 -111 473 -322 419 -620 -24 -135 -126 -282 -243
-353 -245 -147 -723 -162 -1002 -30 -221 105 -341 293 -347 546 l-2 78 98 3
97 3 0 -44 c0 -131 51 -259 137 -346 98 -98 221 -143 431 -160 227 -18 405 34
532 155 78 75 103 128 108 235 5 109 -17 166 -94 239 -87 82 -164 112 -516
200 -353 89 -385 98 -482 147 -235 118 -312 403 -181 669 61 125 212 244 365
288 127 37 288 45 440 22z m-1432 -1050 c221 -564 402 -1027 402 -1030 0 -3
-46 -6 -103 -6 l-103 0 -125 320 -124 320 -469 -3 -470 -2 -122 -315 -122
-315 -106 -3 -105 -3 38 93 c35 85 762 1894 782 1946 8 21 14 22 117 22 l109
0 401 -1024z"/>
<path d="M1443 2842 l-201 -517 396 -3 c217 -1 397 0 400 2 5 6 -381 1036
-388 1036 -3 0 -96 -233 -207 -518z"/>
</g>
</svg>
